Patient4_TMGait_0pt7_01_left_34_GRF.mot
version=1
nRows=77
nColumns=19
inDegrees=no
endheader
time	F1x	F1y	F1z	M1x	M1y	M1z	F2x	F2y	F2z	M2x	M2y	M2z	EC1x	EC1y	EC1z	EC2x	EC2y	EC2z
39.24	-17.0084	-4.1919	0.83276	0.058455	-2.3873	0.68865	-71.4853	710.6078	-39.3565	249.1428	82.06	816.2631	-0.0592	0.0182	-0.0073	-0.0462	0.0165	0.9585
39.2516	-11.5942	-1.715	0.63489	-0.35919	-1.6766	1.8007	-63.6871	709.2777	-47.6058	250.8767	85.4165	810.316	-0.0592	0.0182	-0.0073	-0.0462	0.0165	0.9585
39.2631	-6.9857	0.36813	0.4551	-0.70092	-1.0805	2.7245	-56.3779	708.3572	-54.1299	252.7306	87.4026	804.0065	-0.0592	0.0182	-0.0073	-0.0462	0.0165	0.9585
39.2747	-3.4296	1.9492	0.3075	-0.95658	-0.61372	3.416	-49.6126	708.1714	-58.5157	254.7179	87.7513	797.6678	-0.0592	0.0182	-0.0073	-0.0462	0.0165	0.9585
39.2863	-0.97306	3.1032	0.19735	-1.1453	-0.28774	3.9873	-43.2133	709.3165	-60.7996	257.0362	86.4495	791.9234	-0.0592	0.0182	-0.0073	-0.0462	0.0165	0.9585
39.2979	0.56712	3.8579	0.1197	-1.2707	-0.078129	4.3888	-36.8411	712.7078	-61.4005	260.0358	83.7565	787.7368	-0.0592	0.0182	-0.0073	-0.0462	0.0165	0.9585
39.3094	1.3496	4.3103	0.081777	-1.3474	0.0097212	4.6886	-30.2952	719.415	-60.7849	264.1292	79.9959	786.3104	-0.0592	0.0182	-0.0073	-0.0462	0.0165	0.9585
39.321	1.6205	4.4833	0.076938	-1.3715	0.0036789	4.8078	-23.5186	730.1337	-59.4915	269.5821	75.6162	788.5178	-0.0592	0.0182	-0.0073	-0.0462	0.0165	0.9585
39.3326	1.5124	4.4024	0.096084	-1.3334	-0.087761	4.7356	-16.6765	744.8216	-58.0018	276.3592	71.0939	794.5601	-0.0592	0.0182	-0.0073	-0.0462	0.0165	0.9585
39.3441	1.2189	4.0277	0.13745	-1.2088	-0.23433	4.3398	-10.0593	762.303	-56.7619	283.9925	66.9275	803.5022	-0.0592	0.0182	-0.0073	-0.0462	0.0165	0.9585
39.3557	0.80031	3.3148	0.19375	-0.97029	-0.42346	3.5585	-4.0078	780.5633	-56.1067	291.6905	63.526	813.5553	-0.0592	0.0182	-0.0073	-0.0462	0.0165	0.9585
39.3673	0.37318	2.1669	0.26987	-0.58105	-0.63148	2.2244	1.2498	797.2158	-56.1634	298.5326	61.0697	822.4994	-0.0592	0.0182	-0.0073	-0.0462	0.0165	0.9585
39.3789	-0.035188	0.52749	0.34443	-0.014994	-0.8259	0.28359	5.6034	810.0073	-56.8391	303.6704	59.491	828.2169	-0.0592	0.0182	-0.0073	-0.0462	0.0165	0.9585
39.3904	-0.3171	-1.6646	0.41311	0.7471	-0.96407	-2.3632	9.1032	817.1853	-57.8491	306.4664	58.4931	829.0142	-0.0592	0.0182	-0.0073	-0.0462	0.0165	0.9585
39.402	-0.4229	-4.3067	0.42716	1.6725	-0.97045	-5.578	11.8957	817.6667	-58.9211	306.5476	57.7678	823.8275	-0.0592	0.0182	-0.0073	-0.0462	0.0165	0.9585
39.4136	-0.19713	-7.1651	0.35803	2.6744	-0.75803	-9.0949	14.1739	811.0979	-59.8224	303.8248	57.0338	812.2682	-0.0592	0.0182	-0.0073	-0.0462	0.0165	0.9585
39.4251	0.46381	-9.675	0.13671	3.5515	-0.20784	-12.2078	16.1542	797.9283	-60.4898	298.498	56.1743	794.7256	-0.0592	0.0182	-0.0073	-0.0462	0.0165	0.9585
39.4367	1.7492	-10.9535	-0.27402	3.9791	0.79587	-13.8523	17.9928	779.2518	-60.9209	291.0149	55.1412	772.1863	-0.0592	0.0182	-0.0073	-0.0462	0.0165	0.9585
39.4483	3.7721	-9.6041	-0.94519	3.4528	2.3758	-12.3067	19.8542	756.7464	-61.2113	282.0284	53.9768	746.2129	-0.0592	0.0182	-0.0073	-0.0462	0.0165	0.9585
39.4599	6.6473	-3.7794	-1.8885	1.3049	4.5895	-5.3375	21.8358	732.3599	-61.4393	272.2934	52.7269	718.6395	-0.0592	0.0182	-0.0073	-0.0462	0.0165	0.9585
39.4714	10.3014	8.8669	-3.1141	-3.3012	7.4194	9.9369	23.9753	707.9819	-61.6825	262.5413	51.4583	691.25	-0.0592	0.0182	-0.0073	-0.0462	0.0165	0.9585
39.483	14.5002	30.8425	-4.5192	-11.261	10.6489	36.5609	26.2607	685.1243	-61.9499	253.3604	50.1939	665.4906	-0.0592	0.0182	-0.0073	-0.0462	0.0165	0.9585
39.4946	18.5643	64.4267	-5.915	-23.3768	13.7904	77.3548	28.6202	664.5527	-62.1615	245.0674	48.8868	642.0885	-0.0592	0.0182	-0.0073	-0.0462	0.0165	0.9585
39.5061	21.3665	110.7692	-6.8977	-40.0371	15.9332	133.7492	30.9542	646.2343	-62.1535	237.6781	47.4301	621.0486	-0.0592	0.0182	-0.0073	-0.0462	0.0165	0.9585
39.5177	21.098	168.8331	-6.8667	-60.8334	15.6985	204.5845	33.1418	629.3197	-61.6934	230.909	45.6619	601.5999	-0.0592	0.0182	-0.0073	-0.0462	0.0165	0.9585
39.5293	16.2102	234.8046	-5.0685	-84.3502	11.6385	285.3035	35.0326	612.4248	-60.5451	224.2707	43.4343	582.486	-0.0592	0.0182	-0.0073	-0.0462	0.0165	0.9585
39.5409	7.057	302.4674	-0.76175	-108.2974	2.9859	368.3466	36.481	593.9158	-58.5013	217.1743	40.6258	562.2043	-0.0592	0.0182	-0.0073	-0.0462	0.0165	0.9585
39.5524	-4.1309	363.7336	6.498	-129.7922	-9.9108	443.5763	37.3489	572.1968	-55.5021	209.0315	37.2476	539.2934	-0.0592	0.0182	-0.0073	-0.0462	0.0165	0.9585
39.564	-14.9577	412.6382	15.8068	-146.7841	-25.0365	503.3152	37.5874	545.9497	-51.6371	199.3452	33.4115	512.5233	-0.0592	0.0182	-0.0073	-0.0462	0.0165	0.9585
39.5756	-24.2852	448.6142	25.4926	-159.1635	-39.9537	546.6204	37.1737	514.4479	-47.182	187.8137	29.3714	481.2244	-0.0592	0.0182	-0.0073	-0.0462	0.0165	0.9585
39.5871	-31.7625	475.2087	34.276	-168.2608	-53.015	577.7892	36.1705	477.6213	-42.5015	174.3727	25.4205	445.3077	-0.0592	0.0182	-0.0073	-0.0462	0.0165	0.9585
39.5987	-37.5101	496.6895	41.0922	-175.6643	-63.036	602.1495	34.5951	436.0238	-37.9066	159.1929	21.8049	405.2836	-0.0592	0.0182	-0.0073	-0.0462	0.0165	0.9585
39.6103	-41.6469	516.3088	45.5397	-182.5418	-69.6129	623.7325	32.4408	390.6608	-33.53	142.6257	18.6273	362.0707	-0.0592	0.0182	-0.0073	-0.0462	0.0165	0.9585
39.6219	-44.2647	535.4891	47.7239	-189.3806	-72.9483	644.3618	29.5821	342.8794	-29.3553	125.1641	15.8967	316.9345	-0.0592	0.0182	-0.0073	-0.0462	0.0165	0.9585
39.6334	-45.4482	554.673	48.3275	-196.2609	-73.8963	664.598	25.9876	294.3307	-25.3752	107.413	13.6205	271.4124	-0.0592	0.0182	-0.0073	-0.0462	0.0165	0.9585
39.645	-45.313	573.9579	48.2653	-203.1164	-73.5887	684.6663	21.6768	246.7697	-21.6206	90.0187	11.8132	227.1171	-0.0592	0.0182	-0.0073	-0.0462	0.0165	0.9585
39.6566	-44.0885	593.2989	48.3681	-209.8455	-73.0912	704.5732	16.9082	201.9131	-18.1873	73.6061	10.4722	185.5676	-0.0592	0.0182	-0.0073	-0.0462	0.0165	0.9585
39.6681	-42.229	612.5662	49.3154	-216.339	-73.3272	724.204	12.0358	161.1648	-15.1726	58.687	9.5511	147.9876	-0.0592	0.0182	-0.0073	-0.0462	0.0165	0.9585
39.6797	-40.1056	631.4825	51.3006	-222.4967	-74.6517	743.2659	7.4766	125.4067	-12.6199	45.5893	8.9284	115.1131	-0.0592	0.0182	-0.0073	-0.0462	0.0165	0.9585
39.6913	-37.9965	650.1089	54.1671	-228.3637	-76.9663	761.8012	3.5868	95.0254	-10.4758	34.4576	8.4208	87.2542	-0.0592	0.0182	-0.0073	-0.0462	0.0165	0.9585
39.7029	-35.9796	668.595	57.3713	-234.0541	-79.6868	779.9318	0.54665	69.8642	-8.6307	25.2494	7.8603	64.2251	-0.0592	0.0182	-0.0073	-0.0462	0.0165	0.9585
39.7144	-34.0974	686.9507	60.4638	-239.6212	-82.3094	797.6765	-1.6015	49.5525	-6.9795	17.8303	7.1427	45.6741	-0.0592	0.0182	-0.0073	-0.0462	0.0165	0.9585
39.726	-32.3912	704.8232	63.1914	-244.9771	-84.546	814.6198	-2.9307	33.5296	-5.4635	11.9986	6.2437	31.0752	-0.0592	0.0182	-0.0073	-0.0462	0.0165	0.9585
39.7376	-30.8919	721.6793	65.5116	-249.9444	-86.3464	830.2127	-3.5422	21.2483	-4.0553	7.5495	5.1786	19.9304	-0.0592	0.0182	-0.0073	-0.0462	0.0165	0.9585
39.7491	-29.5965	736.9768	67.5036	-254.3264	-87.7854	843.8792	-3.5263	12.1998	-2.7862	4.2893	4.0131	11.7503	-0.0592	0.0182	-0.0073	-0.0462	0.0165	0.9585
39.7607	-28.5416	750.2381	69.1849	-257.9488	-88.8901	855.139	-3.0521	5.9325	-1.7104	2.0474	2.8579	6.1014	-0.0592	0.0182	-0.0073	-0.0462	0.0165	0.9585
39.7723	-27.6501	761.1273	70.5865	-260.6839	-89.6674	863.6593	-2.3626	2.0124	-0.89061	0.65788	1.8552	2.5619	-0.0592	0.0182	-0.0073	-0.0462	0.0165	0.9585
39.7839	-26.8599	769.4392	71.6909	-262.4542	-90.0795	869.2443	-1.6634	-0.099966	-0.3427	-0.078814	1.0895	0.64564	-0.0592	0.0182	-0.0073	-0.0462	0.0165	0.9585
39.7954	-26.07	775.1059	72.5304	-263.2364	-90.1293	871.8175	-1.0529	-0.95779	-0.012146	-0.36253	0.54713	-0.15343	-0.0592	0.0182	-0.0073	-0.0462	0.0165	0.9585
39.807	-25.1551	778.2572	73.119	-263.0803	-89.8025	871.5349	-0.57821	-1.0214	0.13318	-0.36132	0.21679	-0.24793	-0.0592	0.0182	-0.0073	-0.0462	0.0165	0.9585
39.8186	-24.0104	779.1043	73.4783	-262.08	-89.1041	868.6033	-0.2371	-0.67433	0.15969	-0.20957	0.042574	0.014204	-0.0592	0.0182	-0.0073	-0.0462	0.0165	0.9585
39.8301	-22.5876	777.9686	73.6219	-260.3784	-88.0507	863.3699	-0.025753	-0.15635	0.10871	0.0032711	-0.012631	0.43092	-0.0592	0.0182	-0.0073	-0.0462	0.0165	0.9585
39.8417	-20.8402	775.2319	73.549	-258.1553	-86.6529	856.2501	0.092192	0.37994	0.023074	0.22103	0.010768	0.86636	-0.0592	0.0182	-0.0073	-0.0462	0.0165	0.9585
39.8533	-18.8132	771.3572	73.2598	-255.6235	-84.9402	847.752	0.13004	0.85361	-0.070085	0.41483	0.082986	1.2613	-0.0592	0.0182	-0.0073	-0.0462	0.0165	0.9585
39.8649	-16.5172	766.8201	72.7312	-252.9996	-82.9101	838.3901	0.13116	1.2524	-0.1647	0.57838	0.18152	1.6085	-0.0592	0.0182	-0.0073	-0.0462	0.0165	0.9585
39.8764	-13.9951	762.035	71.9572	-250.466	-80.5732	828.6273	0.091871	1.5717	-0.23705	0.71037	0.27711	1.9056	-0.0592	0.0182	-0.0073	-0.0462	0.0165	0.9585
39.888	-11.2799	757.2945	70.9507	-248.1445	-77.9552	818.7649	0.040993	1.8365	-0.29681	0.81628	0.36653	2.169	-0.0592	0.0182	-0.0073	-0.0462	0.0165	0.9585
39.8996	-8.4031	752.7177	69.7478	-246.076	-75.104	808.9374	-0.017686	2.069	-0.32835	0.90238	0.4343	2.4197	-0.0592	0.0182	-0.0073	-0.0462	0.0165	0.9585
39.9111	-5.382	748.2702	68.4203	-244.2346	-72.1023	799.0848	-0.079224	2.2465	-0.34686	0.96205	0.4941	2.6226	-0.0592	0.0182	-0.0073	-0.0462	0.0165	0.9585
39.9227	-2.2636	743.8246	67.04	-242.5541	-69.0375	789.0603	-0.13722	2.3722	-0.35253	0.99399	0.54855	2.7889	-0.0592	0.0182	-0.0073	-0.0462	0.0165	0.9585
39.9343	0.9867	739.2874	65.6684	-240.9756	-65.967	778.7488	-0.20044	2.3804	-0.35979	0.9774	0.61067	2.8353	-0.0592	0.0182	-0.0073	-0.0462	0.0165	0.9585
39.9459	4.3901	734.6822	64.3329	-239.4788	-62.9096	768.1665	-0.26762	2.2322	-0.38407	0.89406	0.69225	2.7092	-0.0592	0.0182	-0.0073	-0.0462	0.0165	0.9585
39.9574	8.0371	730.1447	63.0507	-238.0827	-59.8546	757.4562	-0.33083	1.8232	-0.4353	0.706	0.7974	2.2661	-0.0592	0.0182	-0.0073	-0.0462	0.0165	0.9585
39.969	12.0203	725.9528	61.8365	-236.848	-56.785	746.9452	-0.39279	1.0554	-0.5205	0.37431	0.93035	1.3818	-0.0592	0.0182	-0.0073	-0.0462	0.0165	0.9585
39.9806	16.4267	722.4654	60.7326	-235.8621	-53.7061	737.0251	-0.42415	-0.17512	-0.63508	-0.14151	1.0722	-0.080392	-0.0592	0.0182	-0.0073	-0.0462	0.0165	0.9585
39.9921	21.3164	720.17	59.8091	-235.2442	-50.6507	728.2361	-0.41353	-1.9439	-0.76173	-0.87055	1.1946	-2.2102	-0.0592	0.0182	-0.0073	-0.0462	0.0165	0.9585
40.0037	26.7312	719.5536	59.1777	-235.1085	-47.7005	721.0971	-0.32061	-4.2415	-0.86325	-1.8084	1.2428	-5.0068	-0.0592	0.0182	-0.0073	-0.0462	0.0165	0.9585
40.0153	32.6164	721.0121	58.9517	-235.5488	-44.9691	716.0543	-0.11556	-6.9139	-0.88062	-2.8901	1.1389	-8.2824	-0.0592	0.0182	-0.0073	-0.0462	0.0165	0.9585
40.0269	38.8955	724.7216	59.2231	-236.6001	-42.5593	713.3258	0.25519	-9.5885	-0.72939	-3.9567	0.76918	-11.574	-0.0592	0.0182	-0.0073	-0.0462	0.0165	0.9585
40.0384	45.402	730.5204	60.0151	-238.2011	-40.54	712.8028	0.83181	-11.5609	-0.30393	-4.7153	-0.0086801	-14.0214	-0.0592	0.0182	-0.0073	-0.0462	0.0165	0.9585
40.05	51.9498	737.8733	61.2806	-240.1813	-38.9263	713.9853	1.66	-11.7055	0.52888	-4.7023	-1.3734	-14.2761	-0.0592	0.0182	-0.0073	-0.0462	0.0165	0.9585
40.0616	58.3404	745.8981	62.8983	-242.2719	-37.6741	716.0539	2.7284	-8.4387	1.9061	-3.2668	-3.4856	-10.438	-0.0592	0.0182	-0.0073	-0.0462	0.0165	0.9585
40.0731	64.3772	753.4172	64.6909	-244.1249	-36.6909	717.8797	3.9856	0.315	3.9272	0.43632	-6.4306	0.0014522	-0.0592	0.0182	-0.0073	-0.0462	0.0165	0.9585
40.0847	69.8891	759.089	66.4357	-245.3469	-35.8431	718.2174	5.2509	16.945	6.6252	7.3787	-10.1555	19.9505	-0.0592	0.0182	-0.0073	-0.0462	0.0165	0.9585
40.0963	74.7726	761.4752	67.8658	-245.522	-34.9407	715.752	6.2215	43.8612	9.8617	18.5263	-14.3399	52.3445	-0.0592	0.0182	-0.0073	-0.0462	0.0165	0.9585
40.1079	78.9422	759.1744	68.6896	-244.2442	-33.7694	709.223	6.3902	82.8631	13.2544	34.5779	-18.2782	99.3889	-0.0592	0.0182	-0.0073	-0.0462	0.0165	0.9585
40.1194	82.3232	750.8541	68.6088	-241.1243	-32.1084	697.4589	4.967	134.1686	16.0509	55.569	-20.7218	161.3972	-0.0592	0.0182	-0.0073	-0.0462	0.0165	0.9585
